HIERARCHY
ROOT Hips
{
	OFFSET 0.000000 89.005402 0.000000
	CHANNELS 6 Xposition Yposition Zposition Xrotation Yrotation Zrotation
	JOINT Spine
	{
		OFFSET 0.116900 10.681000 0.373400
		CHANNELS 3 Xrotation Yrotation Zrotation
		JOINT Spine1
		{
			OFFSET 0.000000 13.840401 0.053500
			CHANNELS 3 Xrotation Yrotation Zrotation
			JOINT Spine2
			{
				OFFSET 0.000000 14.712700 -0.366200
				CHANNELS 3 Xrotation Yrotation Zrotation
				JOINT Neck
				{
					OFFSET 0.000000 35.415497 -3.314200
					CHANNELS 3 Xrotation Yrotation Zrotation
					JOINT Head
					{
						OFFSET 0.000000 16.899200 1.218300
						CHANNELS 3 Xrotation Yrotation Zrotation
						JOINT HeadTop_End
						{
							OFFSET 0.000000 22.206207 2.192500
							CHANNELS 3 Xrotation Yrotation Zrotation
							End Site
							{
								OFFSET 0.000000 22.314178 0.000000
							}
						}
					}
				}
				JOINT LeftShoulder
				{
					OFFSET 12.896400 26.716293 -4.548400
					CHANNELS 3 Xrotation Yrotation Zrotation
					JOINT LeftArm
					{
						OFFSET 19.027000 -4.857010 -1.718400
						CHANNELS 3 Xrotation Yrotation Zrotation
						JOINT LeftForeArm
						{
							OFFSET 24.179897 0.000000 0.000000
							CHANNELS 3 Xrotation Yrotation Zrotation
							JOINT LeftHand
							{
								OFFSET 27.156403 0.000000 0.000000
								CHANNELS 3 Xrotation Yrotation Zrotation
								JOINT LeftHandIndex1
								{
									OFFSET 16.441200 0.000000 0.000000
									CHANNELS 3 Xrotation Yrotation Zrotation
									JOINT LeftHandIndex2
									{
										OFFSET 4.821899 0.000000 0.000000
										CHANNELS 3 Xrotation Yrotation Zrotation
										JOINT LeftHandIndex3
										{
											OFFSET 6.386497 0.000000 0.000000
											CHANNELS 3 Xrotation Yrotation Zrotation
											JOINT LeftHandIndex4
											{
												OFFSET 5.188988 0.000000 0.000000
												CHANNELS 3 Xrotation Yrotation Zrotation
												End Site
												{
													OFFSET -0.178703 5.185913 0.000177
												}
											}
										}
									}
								}
								JOINT LeftHandThumb1
								{
									OFFSET 6.534897 -5.032593 5.900300
									CHANNELS 3 Xrotation Yrotation Zrotation
									JOINT LeftHandThumb2
									{
										OFFSET 3.818176 -2.204422 2.204423
										CHANNELS 3 Xrotation Yrotation Zrotation
										JOINT LeftHandThumb3
										{
											OFFSET 3.252098 -1.877594 1.877601
											CHANNELS 3 Xrotation Yrotation Zrotation
											JOINT LeftHandThumb4
											{
												OFFSET 5.251778 -3.032120 3.032117
												CHANNELS 3 Xrotation Yrotation Zrotation
												End Site
												{
													OFFSET 0.000023 6.780014 0.000000
												}
											}
										}
									}
								}
							}
						}
					}
				}
				JOINT RightShoulder
				{
					OFFSET -12.896300 26.716293 -4.548400
					CHANNELS 3 Xrotation Yrotation Zrotation
					JOINT RightArm
					{
						OFFSET -19.027000 -4.857010 -1.718400
						CHANNELS 3 Xrotation Yrotation Zrotation
						JOINT RightForeArm
						{
							OFFSET -24.179897 0.000000 0.000000
							CHANNELS 3 Xrotation Yrotation Zrotation
							JOINT RightHand
							{
								OFFSET -27.156403 0.000000 0.000000
								CHANNELS 3 Xrotation Yrotation Zrotation
								JOINT RightHandThumb1
								{
									OFFSET -6.591202 -4.852203 5.988100
									CHANNELS 3 Xrotation Yrotation Zrotation
									JOINT RightHandThumb2
									{
										OFFSET -3.818176 -2.204422 2.204423
										CHANNELS 3 Xrotation Yrotation Zrotation
										JOINT RightHandThumb3
										{
											OFFSET -3.252098 -1.877594 1.877601
											CHANNELS 3 Xrotation Yrotation Zrotation
											JOINT RightHandThumb4
											{
												OFFSET -5.251778 -3.032120 3.032117
												CHANNELS 3 Xrotation Yrotation Zrotation
												End Site
												{
													OFFSET -0.000023 6.780014 0.000000
												}
											}
										}
									}
								}
								JOINT RightHandIndex1
								{
									OFFSET -16.029404 0.000000 0.000000
									CHANNELS 3 Xrotation Yrotation Zrotation
									JOINT RightHandIndex2
									{
										OFFSET -5.213303 0.000000 0.000000
										CHANNELS 3 Xrotation Yrotation Zrotation
										JOINT RightHandIndex3
										{
											OFFSET -6.386528 0.000000 0.000000
											CHANNELS 3 Xrotation Yrotation Zrotation
											JOINT RightHandIndex4
											{
												OFFSET -5.189026 0.000000 0.000000
												CHANNELS 3 Xrotation Yrotation Zrotation
												End Site
												{
													OFFSET 0.236702 5.183624 0.001972
												}
											}
										}
									}
								}
							}
						}
					}
				}
			}
		}
	}
	JOINT LeftUpLeg
	{
		OFFSET 14.073000 -7.904099 -1.463000
		CHANNELS 3 Xrotation Yrotation Zrotation
		JOINT LeftLeg
		{
			OFFSET -0.109806 -34.073280 4.093200
			CHANNELS 3 Xrotation Yrotation Zrotation
			JOINT LeftFoot
			{
				OFFSET 0.109806 -29.899420 -6.319000
				CHANNELS 3 Xrotation Yrotation Zrotation
				JOINT LeftToeBase
				{
					OFFSET 1.551100 -14.988700 20.535801
					CHANNELS 3 Xrotation Yrotation Zrotation
					JOINT LeftToe_End
					{
						OFFSET 0.221200 0.570800 13.248301
						CHANNELS 3 Xrotation Yrotation Zrotation
						End Site
						{
							OFFSET 0.000000 13.262435 0.000000
						}
					}
				}
			}
		}
	}
	JOINT RightUpLeg
	{
		OFFSET -13.839300 -7.904099 -1.463000
		CHANNELS 3 Xrotation Yrotation Zrotation
		JOINT RightLeg
		{
			OFFSET 0.109694 -34.073219 4.093300
			CHANNELS 3 Xrotation Yrotation Zrotation
			JOINT RightFoot
			{
				OFFSET -0.109694 -29.899384 -6.319200
				CHANNELS 3 Xrotation Yrotation Zrotation
				JOINT RightToeBase
				{
					OFFSET -1.551100 -14.988700 20.535801
					CHANNELS 3 Xrotation Yrotation Zrotation
					JOINT RightToe_End
					{
						OFFSET -0.221200 0.570900 13.248299
						CHANNELS 3 Xrotation Yrotation Zrotation
						End Site
						{
							OFFSET 0.000000 13.262440 0.000000
						}
					}
				}
			}
		}
	}
}
MOTION
Frames: 9
Frame Time: 0.033333
0.138900 86.483673 -1.489749 2.089992 179.473985 0.290003 -0.554393 -2.596923 -1.062436 -0.965957 -5.264932 0.032080 -1.100649 -5.238760 0.092807 0.400417 3.127219 -2.226202 9.348733 12.259963 -2.228075 -0.000001 -0.000000 -0.000000 1.080931 -1.969863 0.109470 -71.885876 -45.894507 -66.981336 0.000047 -104.457840 0.000041 -23.885305 -13.683472 18.358157 0.093293 1.131896 -9.422902 0.203353 1.664279 -13.931554 0.051016 0.838332 -6.964297 -0.000001 0.000000 -0.000001 20.119772 23.495098 7.304567 1.968256 34.886984 -1.772097 -1.770827 15.030057 1.503653 -0.000002 -0.000001 -0.000001 1.543368 9.120755 0.872930 -50.134067 12.670237 47.537591 0.000047 121.130714 -0.000073 -19.697863 10.091486 -28.606154 12.374360 -43.289022 16.832038 37.520312 -20.127896 -34.549515 15.867706 0.344702 -23.824868 -0.000000 -0.000001 0.000000 4.600964 -6.541580 70.211012 8.060464 -6.859070 99.233503 2.430585 -5.284585 49.374843 -0.000000 -0.000002 0.000002 -1.451347 4.674262 9.130077 8.333448 2.649122 7.057044 -3.598780 2.813247 -16.183459 -0.013960 -0.000004 -0.000004 0.000000 -0.000001 0.000000 -2.890617 -12.715502 -11.798640 11.658236 0.032800 -5.772495 -6.263548 -2.377785 13.187520 -0.003144 -0.000008 0.004742 0.000000 0.000000 -0.000000 
0.135735 86.489006 -1.506831 2.409533 179.327108 0.280899 -0.491582 -2.501794 -1.003931 -0.855678 -5.082978 0.110418 -0.985638 -5.059608 0.164786 0.174049 3.125007 -2.417773 9.905787 11.868568 -2.236421 0.000001 -0.000000 0.000000 1.105135 -2.065801 -0.069896 -71.270142 -46.228342 -65.507743 -0.000024 -103.786248 -0.000018 -23.065293 -14.070246 15.998680 0.093286 1.131892 -9.422906 0.203354 1.664278 -13.931552 0.051014 0.838331 -6.964297 -0.000000 -0.000001 0.000001 20.119772 23.495096 7.304566 1.968257 34.886984 -1.772100 -1.770825 15.030057 1.503654 0.000001 0.000004 -0.000002 1.544366 9.052949 0.610490 -49.470176 12.392935 47.076908 -0.000022 121.014969 0.000033 -18.306821 10.264374 -29.079271 12.374358 -43.289015 16.832038 37.520312 -20.127902 -34.549518 15.867706 0.344700 -23.824866 -0.000000 0.000002 -0.000000 4.600962 -6.541580 70.211012 8.060465 -6.859071 99.233503 2.430583 -5.284585 49.374854 -0.000001 0.000001 -0.000002 -1.039524 4.695148 9.117848 8.406460 3.368996 7.053719 -3.614548 2.918728 -16.218947 0.015624 0.000005 -0.017683 -0.000000 0.000000 0.000000 -2.651115 -12.600663 -11.722105 11.717575 0.210229 -5.904212 -6.276243 -2.377249 13.178269 -0.003253 0.000007 0.004892 -0.000000 -0.000000 0.000000 
0.136351 86.470284 -1.507487 2.668159 179.247318 0.297762 -0.429160 -2.425365 -0.942253 -0.752511 -4.940126 0.176004 -0.878321 -4.920217 0.223337 -0.007194 3.123303 -2.619792 10.353212 11.474066 -2.252091 -0.000000 -0.000000 -0.000000 1.149640 -2.239775 -0.267158 -71.125799 -46.281256 -64.244718 -0.000167 -102.763727 -0.000161 -22.642557 -14.774647 13.587487 0.093286 1.131896 -9.422902 0.203352 1.664278 -13.931555 0.051016 0.838328 -6.964296 -0.000001 0.000004 0.000001 20.119774 23.495098 7.304564 1.968257 34.886981 -1.772093 -1.770824 15.030052 1.503654 -0.000003 0.000001 -0.000002 1.540170 8.982709 0.452865 -49.270157 12.184355 46.615020 -0.000092 120.516557 0.000082 -16.499859 10.336836 -29.403520 12.374356 -43.289022 16.832038 37.520312 -20.127898 -34.549511 15.867706 0.344702 -23.824866 -0.000000 0.000001 0.000001 4.600962 -6.541580 70.211012 8.060467 -6.859071 99.233503 2.430585 -5.284584 49.374847 -0.000001 0.000001 -0.000002 -0.748817 4.749239 9.119251 8.495089 3.941155 6.999078 -3.619525 2.973805 -16.311463 0.043043 0.000024 -0.048311 0.000000 -0.000001 0.000000 -2.505049 -12.535968 -11.723145 11.821106 0.391476 -5.994958 -6.306348 -2.379488 13.275624 -0.003044 -0.000002 0.004591 0.000000 -0.000001 -0.000000 
0.135783 86.423248 -1.481821 2.828539 179.234969 0.392577 -0.359920 -2.372809 -0.878124 -0.652577 -4.850133 0.232558 -0.774705 -4.834330 0.270519 -0.143032 3.133402 -2.846010 10.600457 11.131940 -2.315231 -0.000000 0.000000 -0.000000 1.219156 -2.510001 -0.461090 -72.183270 -45.890419 -63.956887 -0.000059 -100.582964 -0.000060 -22.671496 -15.856399 11.156123 0.093289 1.131896 -9.422904 0.203354 1.664278 -13.931552 0.051014 0.838330 -6.964301 0.000001 -0.000001 -0.000000 20.119775 23.495099 7.304567 1.968254 34.886988 -1.772096 -1.770826 15.030053 1.503655 0.000003 -0.000003 0.000000 1.543616 9.005608 0.396901 -50.007476 12.134139 46.249994 -0.000018 119.111082 -0.000010 -14.751677 10.142344 -29.452360 12.374359 -43.289022 16.832036 37.520316 -20.127902 -34.549515 15.867708 0.344704 -23.824864 0.000000 0.000002 0.000001 4.600962 -6.541579 70.211012 8.060466 -6.859067 99.233503 2.430584 -5.284585 49.374854 -0.000002 -0.000002 0.000003 -0.714854 4.845395 9.126370 8.765350 4.406371 6.817143 -3.701249 2.866583 -16.281812 0.054543 0.000042 -0.061254 -0.000000 -0.000000 0.000000 -2.558994 -12.455568 -11.920796 12.078041 0.549838 -5.946763 -6.399769 -2.381500 13.443619 -0.002642 -0.000003 0.004009 -0.000000 -0.000001 0.000000 
0.078642 86.236740 -1.376155 2.760553 179.335318 0.534049 -0.265807 -2.355048 -0.808111 -0.529474 -4.819644 0.280063 -0.649731 -4.808268 0.304945 -0.307221 3.156917 -3.043212 10.565997 10.941020 -2.498416 -0.000000 0.000000 -0.000000 1.292058 -2.820829 -0.471380 -74.923849 -44.996924 -65.542857 -0.000552 -96.615184 -0.000549 -23.055754 -17.279373 8.743662 0.093289 1.131896 -9.422902 0.203354 1.664282 -13.931556 0.051014 0.838330 -6.964296 -0.000000 0.000001 -0.000003 20.119777 23.495103 7.304558 1.968258 34.886984 -1.772094 -1.770828 15.030053 1.503653 0.000000 -0.000004 0.000000 1.573482 9.258256 0.416065 -51.873163 12.397155 46.290180 -0.000034 116.409359 0.000027 -14.151028 9.591000 -29.081737 12.374359 -43.289022 16.832036 37.520312 -20.127898 -34.549518 15.867709 0.344707 -23.824866 -0.000000 0.000000 -0.000001 4.600962 -6.541580 70.211012 8.060465 -6.859071 99.233503 2.430587 -5.284584 49.374847 -0.000001 -0.000000 -0.000002 -1.859879 4.666722 9.172952 10.846147 4.860104 6.303359 -4.650417 2.778022 -15.567797 0.053909 0.000038 -0.060908 -0.000000 0.000000 0.000000 -3.291099 -12.252066 -12.380351 13.160309 0.656212 -5.773728 -6.856038 -2.437581 13.667564 -0.002198 -0.000012 0.003321 0.000000 -0.000001 0.000000 
-0.028943 85.911270 -1.108824 2.232984 179.618812 0.737418 -0.119873 -2.382723 -0.814371 -0.331252 -4.869863 0.323924 -0.453848 -4.864083 0.330239 -0.629814 3.189979 -3.116392 10.168068 11.016590 -2.890160 -0.000000 -0.000000 -0.000000 1.350040 -3.151141 -0.050626 -79.414965 -43.289107 -69.539638 -0.047853 -90.474434 -0.047823 -23.781346 -19.003719 6.375258 0.093286 1.131896 -9.422900 0.203351 1.664275 -13.931556 0.051015 0.838329 -6.964299 0.000001 -0.000001 -0.000000 20.119774 23.495099 7.304565 1.968256 34.886984 -1.772095 -1.770825 15.030058 1.503652 0.000002 0.000002 -0.000001 1.640697 9.837068 0.493877 -54.963260 13.145929 47.200797 -0.000075 111.984141 0.000081 -15.467646 8.706516 -28.220967 12.374360 -43.289015 16.832036 37.520312 -20.127900 -34.549515 15.867708 0.344701 -23.824866 0.000001 -0.000000 -0.000000 4.600966 -6.541580 70.211012 8.060466 -6.859074 99.233503 2.430584 -5.284587 49.374843 0.000002 0.000001 -0.000004 -4.213269 3.897009 9.461818 14.231356 5.294988 4.921626 -6.075801 2.850581 -14.088659 0.045291 0.000031 -0.052321 0.000000 0.000001 0.000000 -5.043630 -11.931838 -13.214889 15.128574 0.680178 -5.243095 -7.628464 -2.493586 13.754689 -0.001783 0.000004 0.002689 0.000000 -0.000001 0.000000 
-0.229864 85.319054 -0.619709 1.159828 180.079290 0.950284 0.115188 -2.474537 -0.956399 0.015285 -5.019704 0.366123 -0.118287 -5.023507 0.345835 -1.291503 3.228820 -2.976677 9.361072 11.430953 -3.544329 0.000000 -0.000000 -0.000000 1.386695 -3.521807 0.979457 -84.871118 -40.232232 -75.548736 -0.000280 -82.251126 -0.000276 -24.780522 -20.913483 4.076512 0.093286 1.131895 -9.422900 0.203353 1.664282 -13.931556 0.051013 0.838331 -6.964298 0.000001 0.000003 0.000000 20.119772 23.495098 7.304567 1.968261 34.886981 -1.772098 -1.770824 15.030048 1.503652 0.000001 0.000000 0.000000 1.744946 10.745380 0.560739 -59.079716 14.345899 49.481439 -0.000059 105.560621 0.000053 -18.829578 7.669859 -27.120963 12.374357 -43.289018 16.832036 37.520312 -20.127898 -34.549515 15.867706 0.344708 -23.824868 -0.000000 0.000001 0.000000 4.600963 -6.541581 70.211012 8.060465 -6.859070 99.233496 2.430583 -5.284585 49.374847 0.000003 0.000001 -0.000005 -7.988631 2.537845 9.973853 19.057923 5.668804 2.736986 -7.983332 3.031367 -12.078571 0.030282 0.000016 -0.037580 0.000000 -0.000001 0.000000 -8.192242 -11.357579 -14.635634 18.493205 0.663624 -4.009914 -8.908529 -2.542839 13.537948 -0.003338 -0.000002 0.000056 0.000000 0.000000 -0.000000 
-0.501362 84.406250 0.079140 -0.305662 180.546980 1.157829 0.481066 -2.649802 -1.254444 0.590458 -5.283294 0.421792 0.432975 -5.306667 0.362741 -2.450079 3.278504 -2.611027 8.089796 12.169409 -4.433241 -0.000001 0.000000 -0.000000 1.422632 -3.997688 2.538469 -89.670740 -35.454733 -82.089250 0.000025 -72.550420 0.000025 -25.963333 -22.847761 1.889634 0.093292 1.131895 -9.422907 0.203353 1.664278 -13.931551 0.051011 0.838328 -6.964299 -0.000004 0.000004 -0.000005 20.119775 23.495099 7.304563 1.968255 34.886981 -1.772093 -1.770828 15.030055 1.503650 -0.000003 0.000001 0.000001 1.877584 11.866070 0.496432 -63.682724 15.613211 53.444905 0.000116 97.098871 -0.000159 -23.538611 6.853417 -26.211587 12.374360 -43.289018 16.832035 37.520316 -20.127898 -34.549511 15.867708 0.344699 -23.824863 -0.000000 0.000000 0.000000 4.600964 -6.541579 70.211018 8.060463 -6.859068 99.233503 2.430585 -5.284586 49.374843 0.000002 0.000001 0.000001 -12.765639 1.457997 10.543907 24.563556 5.985668 0.523480 -10.014845 2.718205 -10.352110 0.022373 0.000005 -0.030941 -0.000000 -0.000000 -0.000000 -12.525112 -10.420453 -16.562864 23.117609 0.821378 -2.162045 -10.603242 -2.608749 13.027664 -0.004382 0.000000 0.000001 0.000000 0.000001 0.000000 
-0.737302 83.248062 0.938313 -2.024673 180.916138 1.305713 1.015905 -2.916653 -1.645344 1.459439 -5.659995 0.529836 1.264111 -5.722206 0.414572 -4.135195 3.361811 -2.136373 6.225098 13.141558 -5.448584 -0.000001 0.000000 0.000000 1.509600 -4.655125 4.164945 -92.032960 -29.398155 -87.360346 -0.000001 -62.258602 -0.000010 -27.237437 -24.675334 -0.136538 0.093289 1.131895 -9.422901 0.203354 1.664280 -13.931551 0.051015 0.838327 -6.964297 -0.000001 -0.000002 0.000004 20.119777 23.495099 7.304565 1.968259 34.886981 -1.772092 -1.770825 15.030048 1.503651 0.000000 -0.000000 0.000000 2.031355 12.998632 0.163081 -67.800289 16.375291 58.945298 -0.000211 86.804020 0.000163 -28.347764 6.711851 -25.686673 12.374361 -43.289018 16.832036 37.520309 -20.127895 -34.549511 15.867708 0.344701 -23.824864 -0.000001 0.000000 -0.000003 4.600964 -6.541580 70.211018 8.060468 -6.859070 99.233503 2.430582 -5.284583 49.374847 -0.000001 0.000000 -0.000001 -18.089507 1.163540 11.180745 30.024613 5.803040 -1.181167 -11.821723 2.169617 -9.188533 0.023765 0.000007 -0.033591 0.000000 0.000000 -0.000000 -17.625049 -9.334055 -18.428967 28.407552 1.298905 -0.398909 -12.436451 -2.673422 12.245599 -0.004985 -0.000003 0.000001 0.000000 -0.000000 -0.000000 
